<svg width="20" height="20" viewBox="0 0 20 20" fill="none" xmlns="http://www.w3.org/2000/svg">
<g id="icon/24/camera">
<path id="Union" fill-rule="evenodd" clip-rule="evenodd" d="M8.19019 1.66666C7.74817 1.66666 7.32424 1.84226 7.01168 2.15482L5.83317 3.33333H3.33317C2.4127 3.33333 1.6665 4.07952 1.6665 5V15C1.6665 15.9205 2.4127 16.6667 3.33317 16.6667H16.6665C17.587 16.6667 18.3332 15.9205 18.3332 15V5C18.3332 4.07952 17.587 3.33333 16.6665 3.33333H14.1665L12.988 2.15482C12.6754 1.84226 12.2515 1.66666 11.8095 1.66666H8.19019ZM14.1667 10C14.1667 12.3012 12.3012 14.1667 10 14.1667C7.69881 14.1667 5.83333 12.3012 5.83333 10C5.83333 7.69881 7.69881 5.83333 10 5.83333C12.3012 5.83333 14.1667 7.69881 14.1667 10ZM10 12.5C11.3807 12.5 12.5 11.3807 12.5 10C12.5 8.61929 11.3807 7.5 10 7.5C8.61929 7.5 7.5 8.61929 7.5 10C7.5 11.3807 8.61929 12.5 10 12.5Z" fill="#8F95A2"/>
</g>
</svg>
