<svg width="20" height="20" viewBox="0 0 20 20" fill="none" xmlns="http://www.w3.org/2000/svg">
<g id="Frame 3282">
<path id="Rectangle 2626" d="M10.0001 18.0502V18.0502C6.82442 18.0502 4.25 15.4758 4.25 12.3V6.54993C4.25 3.37422 6.82442 0.799805 10.0001 0.799805V0.799805C13.1758 0.799805 15.7502 3.37422 15.7502 6.54993V9.42499V13.7376" stroke="black" stroke-width="1.4" stroke-linecap="round"/>
<path id="Rectangle 2627" d="M15.75 7.99643H17.2001C18.3046 7.99643 19.2001 8.89186 19.2001 9.99643V11.7466C19.2001 12.8511 18.3046 13.7466 17.2001 13.7466H15.75V7.99643Z" stroke="black" stroke-width="1.4"/>
<path id="Rectangle 2628" d="M4.25 7.99643H2.79993C1.69536 7.99643 0.799927 8.89186 0.799927 9.99643V11.7466C0.799927 12.8511 1.69536 13.7466 2.79993 13.7466H4.25V7.99643Z" stroke="black" stroke-width="1.4"/>
<ellipse id="Ellipse 580" cx="9.99988" cy="18.0562" rx="1.31433" ry="1.315" fill="black"/>
</g>
</svg>
