<svg width="20" height="20" viewBox="0 0 20 20" fill="none" xmlns="http://www.w3.org/2000/svg">
<g id="icon-20-heart">
<g id="Union">
<mask id="path-1-inside-1_958_1514" fill="white">
<path fill-rule="evenodd" clip-rule="evenodd" d="M1.85891 10.4833L9.87432 18.4987L17.4679 10.9052L17.4679 10.9052L17.8897 10.4833C19.9866 8.3864 19.9866 4.98665 17.8897 2.88975C15.7928 0.792851 12.3931 0.792851 10.2962 2.88975L9.87431 3.31162L9.45246 2.88978C7.35556 0.792876 3.95581 0.792877 1.85891 2.88978C-0.237991 4.98668 -0.237991 8.38643 1.85891 10.4833Z"/>
</mask>
<path d="M9.87432 18.4987L9.0258 19.3473L9.87433 20.1958L10.7229 19.3473L9.87432 18.4987ZM1.85891 10.4833L1.01038 11.3319L1.85891 10.4833ZM17.4679 10.9052L18.3164 11.7537L19.1649 10.9052L18.3164 10.0567L17.4679 10.9052ZM17.4679 10.9052L16.6193 10.0566L15.7708 10.9052L16.6193 11.7537L17.4679 10.9052ZM9.87431 3.31162L9.02578 4.16015L9.87431 5.00868L10.7228 4.16015L9.87431 3.31162ZM9.45246 2.88978L10.301 2.04125L9.45246 2.88978ZM1.85891 2.88978L1.01038 2.04125L1.85891 2.88978ZM10.7229 17.6502L2.70744 9.6348L1.01038 11.3319L9.0258 19.3473L10.7229 17.6502ZM16.6193 10.0567L9.0258 17.6502L10.7229 19.3473L18.3164 11.7537L16.6193 10.0567ZM16.6193 11.7537L16.6193 11.7537L18.3164 10.0567L18.3164 10.0566L16.6193 11.7537ZM17.0412 9.63477L16.6193 10.0566L18.3164 11.7537L18.7383 11.3318L17.0412 9.63477ZM17.0412 3.73828C18.6695 5.36655 18.6695 8.0065 17.0412 9.63477L18.7383 11.3318C21.3038 8.7663 21.3038 4.60675 18.7383 2.04122L17.0412 3.73828ZM11.1447 3.73828C12.773 2.11001 15.4129 2.11001 17.0412 3.73828L18.7383 2.04122C16.1727 -0.524308 12.0132 -0.524305 9.44765 2.04122L11.1447 3.73828ZM10.7228 4.16015L11.1447 3.73828L9.44765 2.04122L9.02578 2.4631L10.7228 4.16015ZM8.60393 3.73831L9.02578 4.16015L10.7228 2.4631L10.301 2.04125L8.60393 3.73831ZM2.70744 3.73831C4.33571 2.11003 6.97566 2.11003 8.60393 3.73831L10.301 2.04125C7.73546 -0.524281 3.57591 -0.52428 1.01038 2.04125L2.70744 3.73831ZM2.70744 9.6348C1.07917 8.00653 1.07917 5.36658 2.70744 3.73831L1.01038 2.04125C-1.55515 4.60678 -1.55515 8.76633 1.01038 11.3319L2.70744 9.6348Z" fill="black" mask="url(#path-1-inside-1_958_1514)"/>
</g>
</g>
</svg>
