<svg xmlns="http://www.w3.org/2000/svg" width="20" height="20" viewBox="0 0 20 20" fill="none">
  <mask id="path-1-inside-1_961_1766" fill="white">
    <path fill-rule="evenodd" clip-rule="evenodd" d="M1.85903 10.4833L9.87445 18.4987L17.468 10.9052L17.468 10.9052L17.8899 10.4833C19.9868 8.3864 19.9868 4.98665 17.8899 2.88975C15.793 0.792851 12.3932 0.792851 10.2963 2.88975L9.87443 3.31162L9.45258 2.88978C7.35568 0.792876 3.95593 0.792877 1.85903 2.88978C-0.237869 4.98668 -0.237869 8.38643 1.85903 10.4833Z"/>
  </mask>
  <path d="M9.87445 18.4987L9.02592 19.3473L9.87445 20.1958L10.723 19.3473L9.87445 18.4987ZM1.85903 10.4833L1.0105 11.3319L1.85903 10.4833ZM17.468 10.9052L18.3165 11.7537L19.1651 10.9052L18.3165 10.0567L17.468 10.9052ZM17.468 10.9052L16.6195 10.0566L15.7709 10.9052L16.6195 11.7537L17.468 10.9052ZM9.87443 3.31162L9.0259 4.16015L9.87443 5.00868L10.723 4.16015L9.87443 3.31162ZM1.85903 2.88978L1.0105 2.04125L1.85903 2.88978ZM10.723 17.6502L2.70756 9.6348L1.0105 11.3319L9.02592 19.3473L10.723 17.6502ZM16.6195 10.0567L9.02592 17.6502L10.723 19.3473L18.3165 11.7537L16.6195 10.0567ZM16.6195 11.7537L16.6195 11.7537L18.3165 10.0567L18.3165 10.0566L16.6195 11.7537ZM17.0413 9.63477L16.6195 10.0566L18.3165 11.7537L18.7384 11.3318L17.0413 9.63477ZM17.0413 3.73828C18.6696 5.36655 18.6696 8.0065 17.0413 9.63477L18.7384 11.3318C21.3039 8.7663 21.3039 4.60675 18.7384 2.04122L17.0413 3.73828ZM11.1448 3.73828C12.7731 2.11001 15.4131 2.11001 17.0413 3.73828L18.7384 2.04122C16.1729 -0.524308 12.0133 -0.524305 9.44778 2.04122L11.1448 3.73828ZM10.723 4.16015L11.1448 3.73828L9.44778 2.04122L9.0259 2.4631L10.723 4.16015ZM8.60405 3.73831L9.0259 4.16015L10.723 2.4631L10.3011 2.04125L8.60405 3.73831ZM2.70756 3.73831C4.33583 2.11003 6.97578 2.11003 8.60405 3.73831L10.3011 2.04125C7.73558 -0.524281 3.57603 -0.52428 1.0105 2.04125L2.70756 3.73831ZM2.70756 9.6348C1.07929 8.00653 1.07929 5.36658 2.70756 3.73831L1.0105 2.04125C-1.55503 4.60678 -1.55503 8.76633 1.0105 11.3319L2.70756 9.6348Z" fill="#000" mask="url(#path-1-inside-1_961_1766)"/>
</svg>