<svg width="16" height="16" viewBox="0 0 16 16" fill="none" xmlns="http://www.w3.org/2000/svg">
<g clip-path="url(#clip0_810_1412)">
<path d="M15.3333 2.66667V6.66667H11.3333" stroke="#34C185" stroke-width="1.6" stroke-linecap="round" stroke-linejoin="round"/>
<path d="M13.66 10C13.2266 11.2266 12.4064 12.2792 11.3228 12.999C10.2392 13.7189 8.95097 14.067 7.65228 13.9911C6.35359 13.9151 5.11477 13.4191 4.1225 12.5778C3.13024 11.7365 2.43828 10.5955 2.15091 9.32671C1.86354 8.05793 1.99632 6.73013 2.52924 5.54338C3.06217 4.35664 3.96636 3.37525 5.10557 2.7471C6.24478 2.11895 7.55729 1.87807 8.84531 2.06077C10.1333 2.24346 11.3271 2.83983 12.2467 3.76L15.3333 6.66667" stroke="#34C185" stroke-width="1.6" stroke-linecap="round" stroke-linejoin="round"/>
</g>
<defs>
<clipPath id="clip0_810_1412">
<rect width="16" height="16" fill="white"/>
</clipPath>
</defs>
</svg>
