<svg width="24" height="24" viewBox="0 0 24 24" fill="none" xmlns="http://www.w3.org/2000/svg">
<g id="Frame 3277">
<path id="Union" fill-rule="evenodd" clip-rule="evenodd" d="M6 8.43078C6 7.81857 6.28039 7.24009 6.76096 6.86082L11.3805 3.21502C11.7437 2.92833 12.2563 2.92833 12.6195 3.21502L17.239 6.86082C17.7196 7.24009 18 7.81857 18 8.43078V19.2261L19 19.2261V10.2261C19 9.67379 19.4477 9.22607 20 9.22607H21C21.5523 9.22607 22 9.67379 22 10.2261V20.2261C22 20.7784 21.5523 21.2261 21 21.2261H20H4H3C2.44772 21.2261 2 20.7784 2 20.2261V10.2261C2 9.67379 2.44772 9.22607 3 9.22607H4C4.55228 9.22607 5 9.67379 5 10.2261V19.2261L6 19.2261V8.43078ZM14 11.2261C14 12.3307 13.1046 13.2261 12 13.2261C10.8954 13.2261 10 12.3307 10 11.2261C10 10.1215 10.8954 9.22608 12 9.22608C13.1046 9.22608 14 10.1215 14 11.2261Z" fill="white"/>
</g>
</svg>
