<svg xmlns="http://www.w3.org/2000/svg" width="12" height="12" viewBox="0 0 12 12" fill="none">
<path fill-rule="evenodd" clip-rule="evenodd" d="M2.94693 2.03236C2.71261 1.79805 2.33271 1.79805 2.0984 2.03236C1.86408 2.26668 1.86408 2.64658 2.0984 2.88089L5.15168 5.93418L1.96675 9.11911C1.73244 9.35342 1.73244 9.73332 1.96675 9.96764C2.20107 10.202 2.58097 10.202 2.81528 9.96764L6.00021 6.7827L9.18425 9.96674C9.41856 10.2011 9.79846 10.2011 10.0328 9.96674C10.2671 9.73243 10.2671 9.35253 10.0328 9.11821L6.84874 5.93418L9.90113 2.88179C10.1354 2.64747 10.1354 2.26757 9.90113 2.03326C9.66681 1.79894 9.28692 1.79894 9.0526 2.03326L6.00021 5.08565L2.94693 2.03236Z" fill="#8F95A2"/>
</svg>