<svg xmlns="http://www.w3.org/2000/svg" width="56" height="56" viewBox="0 0 56 56" fill="none">
  <path d="M27.6958 8.81508C27.6958 8.28834 28.1228 7.86133 28.6496 7.86133H33.4183V9.76883H28.6496C28.1228 9.76883 27.6958 9.34182 27.6958 8.81508V8.81508Z" fill="#2F81F9"/>
  <circle cx="13" cy="44" r="9" fill="#313D4C"/>
  <circle cx="13" cy="44" r="4" fill="#6B7683"/>
  <circle cx="45" cy="44" r="9" fill="#313D4C"/>
  <circle cx="45" cy="44" r="4" fill="#6B7683"/>
  <path fill-rule="evenodd" clip-rule="evenodd" d="M37.4006 12.7433C37.4502 12.7066 37.499 12.6688 37.5469 12.63H39.661C40.3435 12.63 40.8255 11.9613 40.6096 11.3138L38.733 5.68377C38.5969 5.27543 38.2147 5 37.7843 5H34.8491H34.8058C34.792 5 34.7783 5.00027 34.7647 5.00081C32.4333 5.04576 30.5572 6.94972 30.5572 9.29188V9.29203C30.5572 9.82167 30.6532 10.3289 30.8286 10.7973L35.4591 36.4753L35.4527 36.4736H27.7672C26.6626 36.4736 25.7672 35.5782 25.7672 34.4736V25.5002C25.7672 24.9479 25.3195 24.5002 24.7672 24.5002H8.99687C8.57559 24.5002 8.1739 24.678 7.89074 24.99C4.21404 29.0401 1.94329 34.1692 1.41638 39.6138L1.00948 43.8185C0.895754 44.9937 1.81949 46.0111 3.00018 46.0111H38.748C39.4616 46.0111 40.1212 45.6309 40.4788 45.0132L41.5577 43.1497L43.9402 43.1497H54.2894C54.8417 43.1497 55.0343 42.7005 54.9794 42.151C54.5383 37.7321 51.2004 34.1111 46.7815 33.0061L37.4006 12.7433Z" fill="#64A7FF"/>
  <rect x="4.99097" y="13.5073" width="19" height="11" rx="1" fill="#2F81F9"/>
</svg>