<svg xmlns="http://www.w3.org/2000/svg" width="56" height="56" viewBox="0 0 56 56" fill="none">
  <path d="M48.1256 31.1737L43 28.476V49.9999C43 50.5522 42.5523 50.9999 42 50.9999H14C13.4477 50.9999 13 50.5522 13 49.9999V28.3212L7.3744 31.2821C6.88979 31.5372 6.29018 31.355 6.02936 30.8735L0.404471 20.4891C0.171199 20.0584 0.28417 19.5222 0.671361 19.2222L10.5 11.6084C12.3599 9.70828 16.1571 9.86065 18.8031 10.2279H35.9798C38.6075 9.79942 42.9642 9.42022 45 11.5L54.8286 19.1138C55.2158 19.4138 55.3288 19.95 55.0955 20.3807L49.4706 30.7651C49.2098 31.2466 48.6102 31.4288 48.1256 31.1737Z" fill="#FFEE93"/>
  <path d="M19.8986 6.00613L36.1057 6.00598L32.9999 13.3048H27.9999H21.9999L19.8986 6.00613Z" fill="#F0E5A0"/>
  <path d="M17 10.6957L19.8947 6L28 13.3043L23.5809 17.2868C23.1521 17.6732 22.4862 17.6174 22.1277 17.1651L17 10.6957Z" fill="#FFF9D9"/>
  <path d="M39 10.6957L36.1053 6L28 13.3043L32.4191 17.2868C32.8479 17.6732 33.5138 17.6174 33.8723 17.1651L39 10.6957Z" fill="#FFF9D9"/>
  <circle cx="28" cy="28" r="2" fill="#FFF9D9"/>
  <circle cx="28" cy="37" r="2" fill="#FFF9D9"/>
</svg>