<svg xmlns="http://www.w3.org/2000/svg" width="56" height="56" viewBox="0 0 56 56" fill="none">
  <path d="M27.5 50.6781C25.6105 52.1001 23.4261 53.0313 21.0357 53.3251C12.1036 54.4226 3.67841 46.2026 2.21742 34.9651C0.756423 23.7276 6.81292 13.7281 15.745 12.6306C19.1079 12.2174 22.399 12.3225 25.2737 13.874C26.6395 14.6112 28.3605 14.6112 29.7263 13.874C32.601 12.3225 35.8921 12.2174 39.255 12.6306C48.1871 13.7281 54.2436 23.7276 52.7826 34.9651C51.3216 46.2026 42.8964 54.4226 33.9643 53.3251C31.5739 53.0313 29.3895 52.1001 27.5 50.6781Z" fill="#F5584E"/>
  <path d="M34.4421 11.9608C31.6186 14.4253 28.7292 14.4815 25.8834 14.3751C25.4024 14.3571 24.9987 13.9964 24.9722 13.5159C24.8314 10.9608 25.673 7.97331 27.6823 5.76309C30.2517 3.36103 33.2608 2.6383 36.9954 3.36794C37.282 6.35941 36.5437 10.1265 34.4421 11.9608Z" fill="#006956"/>
</svg>