<svg width="24" height="24" viewBox="0 0 24 24" fill="none" xmlns="http://www.w3.org/2000/svg">
<path d="M20.5875 11.3325L4.08754 3.0825C3.95821 3.01783 3.81295 2.99192 3.66924 3.00788C3.52554 3.02385 3.38951 3.08102 3.27754 3.1725C3.1706 3.26212 3.09079 3.37979 3.04707 3.51229C3.00334 3.64478 2.99745 3.78684 3.03004 3.9225L5.01754 11.25H13.5V12.75H5.01754L3.00004 20.055C2.96946 20.1683 2.96589 20.2872 2.98961 20.4021C3.01334 20.517 3.06371 20.6248 3.13665 20.7167C3.2096 20.8086 3.3031 20.8821 3.40964 20.9313C3.51617 20.9805 3.63276 21.0041 3.75004 21C3.86744 20.9993 3.98304 20.971 4.08754 20.9175L20.5875 12.6675C20.7104 12.6046 20.8135 12.5089 20.8855 12.3912C20.9575 12.2734 20.9956 12.138 20.9956 12C20.9956 11.862 20.9575 11.7266 20.8855 11.6088C20.8135 11.4911 20.7104 11.3954 20.5875 11.3325Z" fill="currentColor"/>
</svg>
