<svg width="24" height="24" viewBox="0 0 24 24" fill="none" xmlns="http://www.w3.org/2000/svg">
<mask id="path-1-inside-1_211_553" fill="white">
<path d="M22 20V8.77568C22 8.0814 21.6399 7.43679 21.0488 7.07272L13.0488 2.14589C12.4057 1.74984 11.5943 1.74984 10.9512 2.14589L2.95123 7.07272C2.36006 7.43679 2 8.0814 2 8.77568V20C2 21.1046 2.89543 22 4 22H7H10V14H14V22H17H20C21.1046 22 22 21.1046 22 20Z"/>
</mask>
<path d="M2.95123 7.07272L3.73781 8.34994H3.73781L2.95123 7.07272ZM10.9512 2.14589L11.7378 3.42311V3.42311L10.9512 2.14589ZM13.0488 2.14589L13.8354 0.868671L13.8354 0.868671L13.0488 2.14589ZM21.0488 7.07272L21.8354 5.7955V5.7955L21.0488 7.07272ZM14 22H12.5C12.5 22.8284 13.1716 23.5 14 23.5V22ZM10 22V23.5C10.8284 23.5 11.5 22.8284 11.5 22H10ZM10 14V12.5H8.5V14H10ZM14 14H15.5V12.5H14V14ZM20.5 8.77568V20H23.5V8.77568H20.5ZM3.5 20V8.77568H0.5V20H3.5ZM3.73781 8.34994L11.7378 3.42311L10.1646 0.868671L2.16465 5.7955L3.73781 8.34994ZM12.2622 3.42311L20.2622 8.34994L21.8354 5.7955L13.8354 0.868671L12.2622 3.42311ZM7 20.5H4V23.5H7V20.5ZM20 20.5H17V23.5H20V20.5ZM17 20.5H14V23.5H17V20.5ZM10 20.5H7V23.5H10V20.5ZM11.5 22V14H8.5V22H11.5ZM10 15.5H14V12.5H10V15.5ZM12.5 14V22H15.5V14H12.5ZM11.7378 3.42311C11.8986 3.3241 12.1014 3.3241 12.2622 3.42311L13.8354 0.868671C12.7099 0.175578 11.2901 0.175578 10.1646 0.868672L11.7378 3.42311ZM0.5 20C0.5 21.933 2.067 23.5 4 23.5V20.5C3.72386 20.5 3.5 20.2761 3.5 20H0.5ZM20.5 20C20.5 20.2761 20.2761 20.5 20 20.5V23.5C21.933 23.5 23.5 21.933 23.5 20H20.5ZM23.5 8.77568C23.5 7.56069 22.8699 6.43262 21.8354 5.7955L20.2622 8.34994C20.41 8.44096 20.5 8.60211 20.5 8.77568H23.5ZM3.5 8.77568C3.5 8.60211 3.59002 8.44096 3.73781 8.34994L2.16465 5.7955C1.13011 6.43262 0.5 7.56069 0.5 8.77568H3.5Z" fill="currentColor" mask="url(#path-1-inside-1_211_553)"/>
</svg>
