<svg width="20" height="20" viewBox="0 0 20 20" fill="none" xmlns="http://www.w3.org/2000/svg">
<g id="Frame 3281">
<path id="Vector" d="M11.7778 12.1022V4.76961M11.7778 12.1022L17.2018 15.2982C17.2828 15.3461 17.3746 15.3711 17.468 15.3709C17.5614 15.3706 17.6531 15.3451 17.7339 15.2968C17.8147 15.2486 17.8819 15.1793 17.9285 15.0959C17.9752 15.0125 17.9999 14.9179 18 14.8216V2.05016C18 1.95378 17.9755 1.85909 17.9289 1.77557C17.8823 1.69205 17.8152 1.62263 17.7343 1.57426C17.6535 1.5259 17.5617 1.50029 17.4683 1.5C17.3748 1.49972 17.2829 1.52476 17.2018 1.57262L11.7778 4.76961M11.7778 12.1022H5.55556M11.7778 4.76961H5.55556C4.61256 4.76961 3.70819 5.15588 3.0414 5.84344C2.3746 6.531 2 7.46353 2 8.43589C2 9.40824 2.3746 10.3408 3.0414 11.0283C3.70819 11.7159 4.61256 12.1022 5.55556 12.1022M5.55556 12.1022L6.22844 16.96C6.29866 17.4326 6.54692 17.8576 6.91928 18.1425C7.29164 18.4275 7.75801 18.5494 8.21705 18.4818C8.6761 18.4141 9.09071 18.1624 9.3708 17.7814C9.65089 17.4003 9.77383 16.9207 9.71289 16.4467L9.11111 12.1022H5.55556Z" stroke="currentColor" stroke-width="1.4"/>
</g>
</svg>
