<svg width="20" height="20" viewBox="0 0 20 20" fill="none" xmlns="http://www.w3.org/2000/svg">
<g id="icon/20/1:1">
<path id="Rectangle 3" d="M1.97881 3.21924C1.97881 3.05355 2.11312 2.91924 2.27881 2.91924H14.0095C14.1752 2.91924 14.3095 3.05355 14.3095 3.21924V11.2215C14.3095 11.3871 14.1752 11.5215 14.0095 11.5215H8.14418H5.70691C5.36482 11.5215 5.03068 11.6247 4.74818 11.8176L1.97881 13.7089V3.21924Z" stroke="currentColor" stroke-width="1.4"/>
<path id="Rectangle 4" d="M14.0943 4.96546L17.2133 4.96536C17.7656 4.96535 18.2134 5.41307 18.2134 5.96536V17.7807L15.0908 15.3817C14.7414 15.1132 14.313 14.9677 13.8724 14.9677H11.8058H6.85572C6.30344 14.9677 5.85572 14.52 5.85572 13.9677V11.8308" stroke="currentColor" stroke-width="1.4" stroke-linejoin="round"/>
</g>
</svg>
